<svg xmlns="http://www.w3.org/2000/svg" width="32.896" height="37.203" viewBox="0 0 32.896 37.203"><defs><style>.a{fill:#ff9100;}.b{fill:#25d9f8;}.c{fill:#00c0f1;}.d{fill:#7fe881;}.e{fill:#5bc980;}.f{fill:#ff637b;}.g{fill:#e63950;}</style></defs><g transform="translate(-29.601 0)"><path class="a" d="M269.534,170.977l-6.3-3.639-8.632,6.45,8.632,6.45,6.322-3.651a3.275,3.275,0,0,0-.021-5.61Z" transform="translate(-208.632 -155.164)"/><path class="b" d="M48.151,30.453l-7.638,9.821-9.93,7.82a3.316,3.316,0,0,1-.982-2.357V15.115a3.315,3.315,0,0,1,.982-2.357l9.93,7.874Z" transform="translate(0 -11.829)"/><path class="c" d="M256.783,220.114,254.6,222.93V217.3Z" transform="translate(-208.632 -201.491)"/><path class="d" d="M67.129,12.164l-6.46,6.46L43.1.929a4.921,4.921,0,0,1,.677-.5,3.231,3.231,0,0,1,3.317.066l11.392,6.7Z" transform="translate(-12.518 0)"/><path class="e" d="M263.243,103.776l-6.46,6.46-2.182-2.182V98.8Z" transform="translate(-208.632 -91.612)"/><path class="f" d="M67.129,262.46l-8.642,4.976L47.073,274.1a3.324,3.324,0,0,1-1.681.48,3.387,3.387,0,0,1-1.615-.436,4.927,4.927,0,0,1-.677-.5L60.669,256Z" transform="translate(-12.518 -237.376)"/><path class="g" d="M263.243,262.46l-8.642,4.976v-9.253L256.783,256Z" transform="translate(-208.632 -237.376)"/></g></svg>