<svg xmlns="http://www.w3.org/2000/svg" width="60" height="60" viewBox="0 0 60 60"><defs><style>.a,.d{fill:none;}.a{stroke:#ebf0f2;stroke-width:3px;}.b{fill:#3f4a58;}.c{stroke:none;}</style></defs><g transform="translate(0 0.219)"><g class="a" transform="translate(0 -0.219)"><circle class="c" cx="30" cy="30" r="30"/><circle class="d" cx="30" cy="30" r="28.5"/></g><g transform="translate(16 16)"><path class="b" d="M19.263,0H8.173A8.183,8.183,0,0,0,0,8.173V19.263a8.183,8.183,0,0,0,8.173,8.173H19.263a8.183,8.183,0,0,0,8.173-8.173V8.173A8.183,8.183,0,0,0,19.263,0Zm5.413,19.263a5.413,5.413,0,0,1-5.413,5.413H8.173A5.413,5.413,0,0,1,2.76,19.263V8.173A5.413,5.413,0,0,1,8.173,2.76H19.263a5.413,5.413,0,0,1,5.413,5.413V19.263Z"/><path class="b" d="M140.1,133a7.1,7.1,0,1,0,7.1,7.1A7.1,7.1,0,0,0,140.1,133Zm0,11.432a4.336,4.336,0,1,1,4.336-4.336A4.336,4.336,0,0,1,140.1,144.432Z" transform="translate(-126.378 -126.378)"/><circle class="b" cx="1.7" cy="1.7" r="1.7" transform="translate(19.127 4.975)"/></g></g></svg>