<svg xmlns="http://www.w3.org/2000/svg" width="30.662" height="37.521" viewBox="0 0 30.662 37.521"><defs><style>.a{fill:#fff;}</style></defs><g transform="translate(-27.875 0)"><path class="a" d="M29.457,77.216c-3.172,5.5-1.156,13.858,2.352,18.923,1.751,2.532,3.524,4.805,5.952,4.805l.139,0a7.35,7.35,0,0,0,2.762-.736,7.564,7.564,0,0,1,3.272-.776,7.114,7.114,0,0,1,3.115.75,6.6,6.6,0,0,0,2.984.715c2.735-.051,4.414-2.5,5.9-4.667a20.689,20.689,0,0,0,2.583-5.291l.011-.033a.308.308,0,0,0-.163-.377l-.023-.01a7.839,7.839,0,0,1-4.751-7.179A8.07,8.07,0,0,1,57.4,76.591l.03-.019a.308.308,0,0,0,.087-.432,8.875,8.875,0,0,0-6.98-3.791c-.2-.02-.4-.03-.609-.03a12.168,12.168,0,0,0-4.381,1.094,7.042,7.042,0,0,1-2.1.627,6.866,6.866,0,0,1-2.171-.635,10.518,10.518,0,0,0-3.826-.972h-.1A9.381,9.381,0,0,0,29.457,77.216Z" transform="translate(0 -63.423)"/><path class="a" d="M156.947,0a8.567,8.567,0,0,0-5.656,2.9,8.027,8.027,0,0,0-2.032,5.951.307.307,0,0,0,.281.266c.131.01.264.015.4.015A7.247,7.247,0,0,0,155.276,6.4,8.462,8.462,0,0,0,157.265.274.309.309,0,0,0,156.947,0Z" transform="translate(-106.409 0)"/></g></svg>