<svg xmlns="http://www.w3.org/2000/svg" width="60" height="60" viewBox="0 0 60 60"><defs><style>.a,.d{fill:none;}.a{stroke:#ebf0f2;stroke-width:3px;}.b{fill:#3f4a58;}.c{stroke:none;}</style></defs><g transform="translate(0 0.219)"><g class="a" transform="translate(0 -0.219)"><circle class="c" cx="30" cy="30" r="30"/><circle class="d" cx="30" cy="30" r="28.5"/></g><path class="b" d="M55.76,36.977a12.549,12.549,0,0,1-3.613.989,6.307,6.307,0,0,0,2.766-3.479,12.591,12.591,0,0,1-3.994,1.526A6.295,6.295,0,0,0,40.2,41.751a17.854,17.854,0,0,1-12.965-6.573,6.3,6.3,0,0,0,1.946,8.4,6.245,6.245,0,0,1-2.849-.788c0,.027,0,.053,0,.08a6.293,6.293,0,0,0,5.046,6.167,6.314,6.314,0,0,1-2.84.109,6.3,6.3,0,0,0,5.876,4.368,12.7,12.7,0,0,1-9.312,2.6,17.791,17.791,0,0,0,9.641,2.826c11.569,0,17.9-9.584,17.9-17.9,0-.273-.006-.544-.018-.813a12.755,12.755,0,0,0,3.139-3.255Z" transform="translate(-10.103 -16.028)"/></g></svg>